<mxfile host="app.diagrams.net" agent="Mozilla/5.0 (Windows NT 10.0; Win64; x64) AppleWebKit/537.36 (KHTML, like Gecko) Chrome/138.0.0.0 Safari/537.36" version="28.0.6">
  <diagram name="Page-1" id="uKyPBy3g1jVxDce5RKM4">
    <mxGraphModel dx="1042" dy="527" grid="1" gridSize="10" guides="1" tooltips="1" connect="1" arrows="1" fold="1" page="1" pageScale="1" pageWidth="850" pageHeight="1100" math="0" shadow="0">
      <root>
        <mxCell id="0" />
        <mxCell id="1" parent="0" />
        <mxCell id="Tyzu09ZwuiHIX_BPrVbN-1" style="edgeStyle=orthogonalEdgeStyle;rounded=0;orthogonalLoop=1;jettySize=auto;html=1;exitX=0.5;exitY=1;exitDx=0;exitDy=0;entryX=0.5;entryY=0;entryDx=0;entryDy=0;" parent="1" target="Tyzu09ZwuiHIX_BPrVbN-5" edge="1">
          <mxGeometry relative="1" as="geometry">
            <mxPoint x="190" y="130" as="sourcePoint" />
          </mxGeometry>
        </mxCell>
        <mxCell id="Tyzu09ZwuiHIX_BPrVbN-24" style="edgeStyle=orthogonalEdgeStyle;rounded=0;orthogonalLoop=1;jettySize=auto;html=1;exitX=1;exitY=0.5;exitDx=0;exitDy=0;entryX=0;entryY=0.5;entryDx=0;entryDy=0;" parent="1" source="Tyzu09ZwuiHIX_BPrVbN-5" target="0H4msGa3E5mB5-3gce2R-1" edge="1">
          <mxGeometry relative="1" as="geometry">
            <mxPoint x="360" y="271" as="targetPoint" />
          </mxGeometry>
        </mxCell>
        <mxCell id="Tyzu09ZwuiHIX_BPrVbN-5" value="&lt;div&gt;&lt;br&gt;&lt;/div&gt;&lt;div&gt;&lt;br&gt;&lt;/div&gt;&lt;div&gt;Augmented&amp;nbsp;&lt;/div&gt;&lt;div&gt;Prompt with&amp;nbsp;&lt;/div&gt;&lt;div&gt;Context&lt;/div&gt;" style="ellipse;whiteSpace=wrap;html=1;aspect=fixed;" parent="1" vertex="1">
          <mxGeometry x="130" y="211" width="120" height="120" as="geometry" />
        </mxCell>
        <mxCell id="Tyzu09ZwuiHIX_BPrVbN-6" value="0.3.1" style="whiteSpace=wrap;html=1;strokeWidth=0;strokeColor=light-dark(default, #ffffff);" parent="1" vertex="1">
          <mxGeometry x="170" y="220" width="40" height="20" as="geometry" />
        </mxCell>
        <mxCell id="Tyzu09ZwuiHIX_BPrVbN-7" value="" style="endArrow=none;html=1;rounded=0;exitX=0.037;exitY=0.301;exitDx=0;exitDy=0;exitPerimeter=0;entryX=0.954;entryY=0.303;entryDx=0;entryDy=0;entryPerimeter=0;" parent="1" edge="1">
          <mxGeometry width="50" height="50" relative="1" as="geometry">
            <mxPoint x="135.44" y="246.12" as="sourcePoint" />
            <mxPoint x="245.48000000000002" y="246.36" as="targetPoint" />
          </mxGeometry>
        </mxCell>
        <mxCell id="Tyzu09ZwuiHIX_BPrVbN-17" value="&lt;span style=&quot;font-size: 10px;&quot;&gt;Query&lt;/span&gt;" style="text;html=1;align=center;verticalAlign=middle;resizable=0;points=[];autosize=1;strokeColor=none;fillColor=none;" parent="1" vertex="1">
          <mxGeometry x="290" y="240" width="50" height="30" as="geometry" />
        </mxCell>
        <mxCell id="Tyzu09ZwuiHIX_BPrVbN-18" value="&lt;div&gt;&lt;span style=&quot;font-size: 10px;&quot;&gt;Response&lt;/span&gt;&lt;/div&gt;" style="text;html=1;align=center;verticalAlign=middle;resizable=0;points=[];autosize=1;strokeColor=none;fillColor=none;" parent="1" vertex="1">
          <mxGeometry x="380" y="157" width="70" height="30" as="geometry" />
        </mxCell>
        <mxCell id="Tyzu09ZwuiHIX_BPrVbN-20" value="Context-rich Documents" style="html=1;dashed=0;whiteSpace=wrap;shape=partialRectangle;right=0;left=0;" parent="1" vertex="1">
          <mxGeometry x="135" y="85" width="110" height="40" as="geometry" />
        </mxCell>
        <mxCell id="Tyzu09ZwuiHIX_BPrVbN-22" value="&lt;div style=&quot;text-align: left;&quot;&gt;&lt;span style=&quot;font-size: 10px;&quot;&gt;Chunked&lt;/span&gt;&lt;/div&gt;&lt;div style=&quot;text-align: left;&quot;&gt;&lt;span style=&quot;font-size: 10px;&quot;&gt;Tokens&lt;/span&gt;&lt;/div&gt;" style="text;html=1;align=center;verticalAlign=middle;resizable=0;points=[];autosize=1;strokeColor=none;fillColor=none;" parent="1" vertex="1">
          <mxGeometry x="185" y="148" width="60" height="40" as="geometry" />
        </mxCell>
        <mxCell id="0H4msGa3E5mB5-3gce2R-1" value="&lt;div&gt;&lt;br&gt;&lt;/div&gt;&lt;div&gt;&lt;span style=&quot;background-color: transparent; color: light-dark(rgb(0, 0, 0), rgb(255, 255, 255));&quot;&gt;Response&amp;nbsp;&lt;/span&gt;&lt;/div&gt;&lt;div&gt;Invokation&amp;nbsp;&lt;/div&gt;&lt;div&gt;through the LLM&lt;/div&gt;" style="ellipse;whiteSpace=wrap;html=1;aspect=fixed;" vertex="1" parent="1">
          <mxGeometry x="385" y="211" width="120" height="120" as="geometry" />
        </mxCell>
        <mxCell id="0H4msGa3E5mB5-3gce2R-2" value="0.3.2" style="whiteSpace=wrap;html=1;strokeWidth=0;strokeColor=light-dark(default, #ffffff);" vertex="1" parent="1">
          <mxGeometry x="425" y="220" width="40" height="20" as="geometry" />
        </mxCell>
        <mxCell id="0H4msGa3E5mB5-3gce2R-3" value="" style="endArrow=none;html=1;rounded=0;exitX=0.037;exitY=0.301;exitDx=0;exitDy=0;exitPerimeter=0;entryX=0.954;entryY=0.303;entryDx=0;entryDy=0;entryPerimeter=0;" edge="1" parent="1">
          <mxGeometry width="50" height="50" relative="1" as="geometry">
            <mxPoint x="390.98" y="247" as="sourcePoint" />
            <mxPoint x="501.02" y="247.24" as="targetPoint" />
          </mxGeometry>
        </mxCell>
        <mxCell id="0H4msGa3E5mB5-3gce2R-4" value="End User" style="rounded=0;whiteSpace=wrap;html=1;" vertex="1" parent="1">
          <mxGeometry x="385" y="80" width="120" height="45" as="geometry" />
        </mxCell>
        <mxCell id="0H4msGa3E5mB5-3gce2R-5" style="edgeStyle=orthogonalEdgeStyle;rounded=0;orthogonalLoop=1;jettySize=auto;html=1;exitX=0.5;exitY=0;exitDx=0;exitDy=0;entryX=0.5;entryY=1;entryDx=0;entryDy=0;" edge="1" parent="1" source="0H4msGa3E5mB5-3gce2R-1" target="0H4msGa3E5mB5-3gce2R-4">
          <mxGeometry relative="1" as="geometry" />
        </mxCell>
      </root>
    </mxGraphModel>
  </diagram>
</mxfile>
